# xmcd
#
# Track frame offsets: 
#        150
#        15810
#        30915
#        45235
#        60167
#        74262
#        89815
#        104240
#        118735
#        134082
#        146780
#        163705
#        180197
#
# Disc length: 2637 seconds
#
# Revision: 1
# Processed by: cddbd v1.5.2PL0 Copyright (c) Steve Scherf et al.
# Submitted via: ExactAudioCopyFreeDBPlugin 1.0
#
DISCID=ab0a4b0d
DTITLE=Galactic - Ruckus
DYEAR=2003
DGENRE=Electronic
TTITLE0=Bittersweet
TTITLE1=Bongo Joe
TTITLE2=The Moil
TTITLE3=Paint
TTITLE4=Never Called You Crazy
TTITLE5=Gypsy Fade
TTITLE6=Mercamon
TTITLE7=Uptown Odyssey
TTITLE8=Kid Kenner
TTITLE9=The Beast
TTITLE10=Tenderness
TTITLE11=All Behind You Now
TTITLE12=Doomed
EXTD=
EXTT0=
EXTT1=
EXTT2=
EXTT3=
EXTT4=
EXTT5=
EXTT6=
EXTT7=
EXTT8=
EXTT9=
EXTT10=
EXTT11=
EXTT12=
PLAYORDER=
